<svg width="100px" height="100px" xmlns="http://www.w3.org/2000/svg" xmlns:xlink="http://www.w3.org/1999/xlink" version="1.1" id="Layer_1" x="0px" y="0px" viewBox="0 0 61 61" style="enable-background:new 0 0 61 61;" prserveAspectRatio="xMidYMid meet" xml:space="preserve">
<style type="text/css">
	.st0{fill:#455A64;stroke:#424242;stroke-linecap:round;stroke-linejoin:round;stroke-miterlimit:10;}
	.st1{fill:none;stroke:#546E7A;stroke-linecap:round;stroke-linejoin:round;stroke-miterlimit:10;}
	.st2{fill:#546E7A;stroke:#424242;stroke-linecap:round;stroke-linejoin:round;stroke-miterlimit:10;}
	.st3{fill:none;stroke:#78909C;stroke-linecap:round;stroke-linejoin:round;stroke-miterlimit:10;}
	.st4{fill:none;stroke:#455A64;stroke-linecap:round;stroke-linejoin:round;stroke-miterlimit:10;}
	.st5{fill:#FFA726;stroke:#424242;stroke-linecap:round;stroke-linejoin:round;stroke-miterlimit:10;}
	.st6{fill:none;stroke:#FB8C00;stroke-linecap:round;stroke-linejoin:round;stroke-miterlimit:10;}
	.st7{fill:none;stroke:#FFCC80;stroke-linecap:round;stroke-linejoin:round;stroke-miterlimit:10;}
	.st8{fill:#CFD8DC;stroke:#424242;stroke-linecap:round;stroke-linejoin:round;stroke-miterlimit:10;}
	.st9{fill:none;stroke:#ECEFF1;stroke-linecap:round;stroke-linejoin:round;stroke-miterlimit:10;}
	.st10{fill:none;stroke:#B0BEC5;stroke-linecap:round;stroke-linejoin:round;stroke-miterlimit:10;}
	.st11{fill:none;stroke:#424242;stroke-linecap:round;stroke-linejoin:round;stroke-miterlimit:10;}
	.st12{fill:#EC407A;stroke:#424242;stroke-linecap:round;stroke-linejoin:round;stroke-miterlimit:10;}
	.st13{fill:none;stroke:#F48FB1;stroke-linecap:round;stroke-linejoin:round;stroke-miterlimit:10;}
	.st14{fill:none;stroke:#D81B60;stroke-linecap:round;stroke-linejoin:round;stroke-miterlimit:10;}
	.st15{fill:#ECEFF1;stroke:#424242;stroke-linecap:round;stroke-linejoin:round;stroke-miterlimit:10;}
	.st16{fill:#26C6DA;stroke:#424242;stroke-linecap:round;stroke-linejoin:round;stroke-miterlimit:10;}
	.st17{fill:none;stroke:#00ACC1;stroke-linecap:round;stroke-linejoin:round;stroke-miterlimit:10;}
	.st18{fill:none;stroke:#80DEEA;stroke-linecap:round;stroke-linejoin:round;stroke-miterlimit:10;}
	.st19{fill:#B0BEC5;stroke:#424242;stroke-linecap:round;stroke-linejoin:round;stroke-miterlimit:10;}
	.st20{fill:none;stroke:#CFD8DC;stroke-linecap:round;stroke-linejoin:round;stroke-miterlimit:10;}
	.st21{fill:#E0E0E0;stroke:#424242;stroke-linecap:round;stroke-linejoin:round;stroke-miterlimit:10;}
	.st22{fill:#F57F17;stroke:#424242;stroke-linecap:round;stroke-linejoin:round;stroke-miterlimit:10;}
	.st23{fill:none;stroke:#F57F17;stroke-linecap:round;stroke-linejoin:round;stroke-miterlimit:10;}
	.st24{fill:#FB8C00;stroke:#424242;stroke-miterlimit:10;}
	.st25{fill:none;stroke:#0097A7;stroke-linecap:round;stroke-linejoin:round;stroke-miterlimit:10;}
	.st26{fill:#26C6DA;stroke:#0097A7;stroke-linecap:round;stroke-linejoin:round;stroke-miterlimit:10;}
	.st27{fill:none;stroke:#90A4AE;stroke-linecap:round;stroke-linejoin:round;stroke-miterlimit:10;}
	.st28{fill:#CFD8DC;}
	.st29{fill:none;stroke:#424242;stroke-linecap:round;stroke-linejoin:round;}
	.st30{fill:none;stroke:#424242;stroke-linecap:round;stroke-linejoin:round;stroke-dasharray:4.0714,4.0714;}
	.st31{fill:#90A4AE;stroke:#424242;stroke-linecap:round;stroke-linejoin:round;stroke-miterlimit:10;}
	.st32{fill:none;stroke:#78909C;stroke-linecap:round;stroke-miterlimit:10;}
	.st33{fill:none;stroke:#455A64;stroke-linecap:round;stroke-miterlimit:10;}
	.st34{fill:#78909C;stroke:#424242;stroke-linecap:round;stroke-linejoin:round;stroke-miterlimit:10;}
	.st35{fill:none;stroke:#546E7A;stroke-linecap:round;stroke-miterlimit:10;}
	.st36{fill:none;stroke:#FFA726;stroke-linecap:round;stroke-linejoin:round;stroke-miterlimit:10;}
	.st37{fill:#4DD0E1;stroke:#424242;stroke-linecap:round;stroke-linejoin:round;stroke-miterlimit:10;}
	.st38{fill:#00ACC1;stroke:#424242;stroke-linecap:round;stroke-linejoin:round;stroke-miterlimit:10;}
	.st39{fill:#D81B60;stroke:#424242;stroke-linecap:round;stroke-linejoin:round;stroke-miterlimit:10;}
	.st40{fill:none;stroke:#C2185B;stroke-linecap:round;stroke-linejoin:round;stroke-miterlimit:10;}
	.st41{fill:#FB8C00;stroke:#424242;stroke-linecap:round;stroke-linejoin:round;stroke-miterlimit:10;}
	.st42{fill:none;stroke:#37474F;stroke-linecap:round;stroke-linejoin:round;stroke-miterlimit:10;}
	.st43{fill:#B0BEC5;stroke:#424242;stroke-miterlimit:10;}
	.st44{fill:#37474F;stroke:#424242;stroke-linecap:round;stroke-linejoin:round;stroke-miterlimit:10;}
	.st45{fill:#F5F5F5;stroke:#424242;stroke-linecap:round;stroke-linejoin:round;stroke-miterlimit:10;}
	.st46{fill:none;stroke:#FAFAFA;stroke-linecap:round;stroke-linejoin:round;stroke-miterlimit:10;}
	.st47{fill:#F06292;stroke:#424242;stroke-linecap:round;stroke-linejoin:round;stroke-miterlimit:10;}
	.st48{fill:#F48FB1;stroke:#424242;stroke-linecap:round;stroke-linejoin:round;stroke-miterlimit:10;}
</style>
<g id="Film_Reel">
	<rect x="48.5" y="0.5" class="st0" width="12" height="36"/>
	<circle class="st0" cx="24.5" cy="36.5" r="24"/>
	<path class="st0" d="M24.5,14.5c12.1,0,22,9.9,22,22s-9.9,22-22,22s-22-9.9-22-22S12.4,14.5,24.5,14.5"/>
	<path class="st1" d="M24.5,56.5c-11,0-20-9-20-20s9-20,20-20 M24.5,16.5"/>
	<circle class="st2" cx="36.5" cy="36.5" r="24"/>
	<path class="st3" d="M14.5,36.5c0-12.2,9.8-22,22-22"/>
	<path class="st4" d="M58.5,36.5c0,12.2-9.8,22-22,22"/>
	<circle class="st2" cx="36.5" cy="36.5" r="6"/>
	<path class="st3" d="M32.5,36.5c0-2.2,1.8-4,4-4"/>
	<g>
		<circle class="st0" cx="22.5" cy="31.5" r="5"/>
		<path class="st5" d="M24.2,26.8c-2.1,2.4-3.4,5.5-3.4,8.9c0,0.2,0,0.4,0,0.6c0.5,0.2,1.1,0.3,1.6,0.3c2.8,0,5-2.2,5-5    C27.5,29.3,26.1,27.5,24.2,26.8z"/>
		<path class="st5" d="M26.6,28.6c-1.7,1.9-2.8,4.3-2.8,7.1c0,0.2,0,0.4,0,0.7c2.1-0.6,3.7-2.5,3.7-4.8    C27.5,30.4,27.1,29.4,26.6,28.6z"/>
	</g>
	<g>
		<circle class="st0" cx="27.5" cy="47.5" r="5"/>
		<path class="st5" d="M27.5,42.5c-1.7,0-3.3,0.9-4.2,2.3c1.6,3,4.4,5.3,7.7,6.3c0.9-0.9,1.5-2.2,1.5-3.6    C32.5,44.7,30.3,42.5,27.5,42.5z"/>
		<path class="st5" d="M27.5,42.5c-0.7,0-1.3,0.1-1.9,0.4c1.3,2.7,3.8,4.8,6.8,5.5c0.1-0.3,0.1-0.6,0.1-0.9    C32.5,44.7,30.3,42.5,27.5,42.5z"/>
	</g>
	<g>
		<circle class="st0" cx="45.5" cy="47.5" r="5"/>
		<path class="st5" d="M49.7,44.8c-0.9-1.4-2.4-2.3-4.2-2.3c-2.8,0-5,2.2-5,5c0,1.4,0.6,2.7,1.5,3.6C45.3,50,48,47.7,49.7,44.8z"/>
		<path class="st5" d="M47.4,42.9c-0.6-0.2-1.2-0.4-1.9-0.4c-2.8,0-5,2.2-5,5c0,0.3,0,0.6,0.1,0.9C43.6,47.6,46,45.6,47.4,42.9z"/>
	</g>
	<g>
		<circle class="st0" cx="50.5" cy="31.5" r="5"/>
		<path class="st5" d="M45.5,31.5c0,2.8,2.2,5,5,5c0.6,0,1.1-0.1,1.6-0.3c0-0.2,0-0.4,0-0.6c0-3.4-1.3-6.5-3.4-8.9    C46.9,27.5,45.5,29.3,45.5,31.5z"/>
		<path class="st5" d="M45.5,31.5c0,2.3,1.6,4.3,3.7,4.8c0-0.2,0-0.4,0-0.7c0-2.7-1.1-5.2-2.8-7.1C45.9,29.4,45.5,30.4,45.5,31.5z"/>
	</g>
	<g>
		<circle class="st0" cx="36.5" cy="21.5" r="5"/>
		<path class="st5" d="M36.5,20.7c-1.8,0-3.4,0.4-5,1c0.1,2.7,2.3,4.9,5,4.9s4.9-2.2,5-4.9C39.9,21,38.3,20.7,36.5,20.7z"/>
		<path class="st5" d="M36.5,23.6c-1.4,0-2.8,0.3-4.1,0.8c0.9,1.3,2.4,2.1,4.1,2.1s3.2-0.8,4.1-2.1C39.3,23.9,37.9,23.6,36.5,23.6z"/>
	</g>
</g>
</svg>